<svg width="308" height="124" viewBox="0 0 308 124" fill="none" xmlns="http://www.w3.org/2000/svg">
<path d="M275 40.2665C277.357 40.2665 279.268 38.3262 279.268 35.9327C279.268 33.5392 277.357 31.5989 275 31.5989C272.643 31.5989 270.732 33.5392 270.732 35.9327C270.732 38.3262 272.643 40.2665 275 40.2665Z" stroke="#2E4F60" stroke-width="5" stroke-miterlimit="10" stroke-linecap="round" stroke-linejoin="round"/>
<path d="M278.131 26.7008C278.037 26.6533 277.946 26.6081 277.85 26.5654C276.845 26.1002 275.727 25.8406 274.551 25.8406C273.374 25.8406 272.256 26.1002 271.251 26.5654C271.155 26.6082 271.064 26.6533 270.971 26.7008C264.983 15.364 274.551 3 274.551 3C274.551 3 284.119 15.364 278.131 26.7008Z" stroke="#2E4F60" stroke-width="5" stroke-miterlimit="10" stroke-linecap="round" stroke-linejoin="round"/>
<path d="M273.165 28.056C273.063 28.0806 272.965 28.1057 272.864 28.135C271.8 28.4347 270.779 28.9659 269.878 29.7337C268.977 30.5013 268.284 31.4302 267.809 32.4425C267.763 32.5379 267.721 32.632 267.68 32.7292C255.916 27.9531 255.419 12.2368 255.419 12.2368C255.419 12.2368 270.575 15.463 273.165 28.056Z" stroke="#2E4F60" stroke-width="5" stroke-miterlimit="10" stroke-linecap="round" stroke-linejoin="round"/>
<path d="M268.608 31.097C268.546 31.1821 268.486 31.2656 268.428 31.3536C267.802 32.278 267.356 33.3513 267.152 34.5276C266.948 35.7038 267.005 36.8672 267.282 37.953C267.307 38.0562 267.335 38.1553 267.365 38.2566C255.33 42.2763 245 30.5614 245 30.5614C245 30.5614 258.653 23.1403 268.608 31.097Z" stroke="#2E4F60" stroke-width="5" stroke-miterlimit="10" stroke-linecap="round" stroke-linejoin="round"/>
<path d="M267.042 36.4005C267.048 36.5062 267.056 36.609 267.067 36.7145C267.173 37.8311 267.51 38.9442 268.099 39.9785C268.687 41.0132 269.467 41.8664 270.366 42.5179C270.451 42.5807 270.535 42.6383 270.622 42.6964C263.947 53.6307 248.618 51.399 248.618 51.399C248.618 51.399 254.379 36.8031 267.042 36.4005Z" stroke="#2E4F60" stroke-width="5" stroke-miterlimit="10" stroke-linecap="round" stroke-linejoin="round"/>
<path d="M269.2 41.4851C269.272 41.5623 269.342 41.6365 269.418 41.7097C270.205 42.496 271.169 43.1282 272.274 43.5365C273.38 43.9454 274.518 44.0896 275.619 44.0018C275.724 43.9943 275.824 43.9839 275.928 43.972C277.737 56.7047 264.581 65 264.581 65C264.581 65 259.755 50.0584 269.2 41.4851Z" stroke="#2E4F60" stroke-width="5" stroke-miterlimit="10" stroke-linecap="round" stroke-linejoin="round"/>
<path d="M274.072 43.9714C274.176 43.9838 274.277 43.9946 274.381 44.0017C275.482 44.0899 276.62 43.9448 277.726 43.5364C278.831 43.1281 279.795 42.4958 280.582 41.71C280.658 41.6358 280.728 41.5623 280.8 41.485C290.245 50.0587 285.419 64.9999 285.419 64.9999C285.419 64.9999 272.263 56.7045 274.072 43.9714Z" stroke="#2E4F60" stroke-width="5" stroke-miterlimit="10" stroke-linecap="round" stroke-linejoin="round"/>
<path d="M279.378 42.6964C279.465 42.6383 279.549 42.5806 279.634 42.5183C280.533 41.8669 281.313 41.0128 281.902 39.9785C282.49 38.9446 282.828 37.8311 282.933 36.7149C282.945 36.6091 282.952 36.5064 282.958 36.4005C295.621 36.8031 301.382 51.399 301.382 51.399C301.382 51.399 286.053 53.6307 279.378 42.6964Z" stroke="#2E4F60" stroke-width="5" stroke-miterlimit="10" stroke-linecap="round" stroke-linejoin="round"/>
<path d="M282.635 38.2565C282.665 38.1547 282.694 38.0558 282.718 37.9531C282.995 36.867 283.052 35.7035 282.848 34.5271C282.644 33.3513 282.198 32.278 281.573 31.3537C281.514 31.2654 281.454 31.182 281.392 31.0965C291.348 23.1402 305 30.5612 305 30.5612C305 30.5612 294.671 42.2762 282.635 38.2565Z" stroke="#2E4F60" stroke-width="5" stroke-miterlimit="10" stroke-linecap="round" stroke-linejoin="round"/>
<path d="M282.32 32.7294C282.279 32.6319 282.237 32.5379 282.191 32.4428C281.716 31.4302 281.023 30.5018 280.122 29.7337C279.222 28.9662 278.201 28.4349 277.136 28.1353C277.035 28.1057 276.937 28.0808 276.835 28.0561C279.425 15.4631 294.581 12.237 294.581 12.237C294.581 12.237 294.084 27.9535 282.32 32.7294Z" stroke="#2E4F60" stroke-width="5" stroke-miterlimit="10" stroke-linecap="round" stroke-linejoin="round"/>
<path d="M7.28 70.04C5.49333 70.04 4.22667 69.5333 3.48 68.52C2.76 67.48 2.4 65.92 2.4 63.84C2.4 62.5067 2.61333 60.5067 3.04 57.84C3.49333 55.1467 4.12 51.5867 4.92 47.16L2.8 42.88C4.05333 42.08 5.38667 41.4 6.8 40.84C8.21333 40.2533 9.62667 39.96 11.04 39.96C11.9467 39.96 12.6133 40.1733 13.04 40.6C13.4933 41.0267 13.8 41.56 13.96 42.2C15.2933 42.1467 16.9467 41.9333 18.92 41.56C20.8933 41.1867 22.8667 40.72 24.84 40.16C25.0533 41.36 25.16 42.3733 25.16 43.2C25.16 44.3733 24.8533 45.3733 24.24 46.2C23.6267 47.0267 22.8 47.6533 21.76 48.08C20.7467 48.48 19.6133 48.68 18.36 48.68C17.5333 48.68 16.7333 48.5733 15.96 48.36C15.2133 48.1467 14.4267 47.84 13.6 47.44C13.44 48.4267 13.24 49.5067 13 50.68C12.76 51.8267 12.5333 52.9867 12.32 54.16C12.7467 54.2667 13.1733 54.3467 13.6 54.4C14.0267 54.4533 14.4533 54.48 14.88 54.48C15.4133 54.3733 16.0133 54.24 16.68 54.08C17.3733 53.8933 17.9733 53.72 18.48 53.56C18.5867 53.9067 18.64 54.2667 18.64 54.64C18.6667 54.9867 18.68 55.2667 18.68 55.48C18.68 56.76 18.24 57.6933 17.36 58.28C16.5067 58.8667 15.4933 59.16 14.32 59.16C13.7867 59.16 13.2933 59.1333 12.84 59.08C12.3867 59 11.9333 58.9067 11.48 58.8C11.1867 60.48 11.04 61.6933 11.04 62.44C11.04 63.8 11.1333 64.9467 11.32 65.88C11.5333 66.8133 11.84 67.6 12.24 68.24C10.64 69.44 8.98667 70.04 7.28 70.04ZM30.8747 70C29.248 70 28.088 69.4933 27.3947 68.48C26.7014 67.4667 26.3547 65.92 26.3547 63.84C26.3547 63.2533 26.4214 62.3867 26.5547 61.24C26.7147 60.0933 26.9147 58.7867 27.1547 57.32C27.3947 55.8533 27.6614 54.3333 27.9547 52.76C28.248 51.16 28.528 49.6133 28.7947 48.12C29.0614 46.6267 29.3014 45.2933 29.5147 44.12L27.2747 40.92C28.688 40.0933 30.0347 39.4 31.3147 38.84C32.5947 38.28 33.8747 38 35.1547 38C36.2747 38 37.048 38.2267 37.4747 38.68C37.928 39.1067 38.1547 39.8267 38.1547 40.84C38.1547 41.7733 38.0347 42.9467 37.7947 44.36C37.5547 45.7467 37.2614 47.2667 36.9147 48.92C36.568 50.5467 36.208 52.2267 35.8347 53.96C35.488 55.6933 35.1947 57.36 34.9547 58.96C34.7147 60.56 34.5947 62.0133 34.5947 63.32C34.5947 64.36 34.688 65.2933 34.8747 66.12C35.088 66.92 35.408 67.56 35.8347 68.04C33.968 69.3467 32.3147 70 30.8747 70ZM52.0653 70C49.7186 70 47.692 69.56 45.9853 68.68C44.3053 67.7733 43.012 66.5333 42.1053 64.96C41.1986 63.3867 40.7453 61.56 40.7453 59.48C40.7453 56.6 41.372 54.08 42.6253 51.92C43.9053 49.7333 45.652 48.04 47.8653 46.84C50.0786 45.6133 52.5986 45 55.4253 45C55.8786 45 56.332 45.0267 56.7853 45.08C57.2653 45.1067 57.772 45.1867 58.3053 45.32C58.4386 45.6933 58.5453 46.1467 58.6253 46.68C58.7053 47.1867 58.7586 47.7333 58.7853 48.32C59.0253 48.24 59.2786 48.1733 59.5453 48.12C59.8386 48.0667 60.1453 48.04 60.4653 48.04C61.3986 48.04 62.2786 48.2933 63.1053 48.8C63.932 49.28 64.612 50.04 65.1453 51.08C65.6786 52.12 65.9453 53.44 65.9453 55.04C65.9453 57.4133 65.5453 59.5333 64.7453 61.4C63.972 63.24 62.9186 64.8 61.5853 66.08C60.252 67.36 58.7586 68.3333 57.1053 69C55.4786 69.6667 53.7986 70 52.0653 70ZM53.3053 65.08C53.9186 65.08 54.5586 64.9333 55.2253 64.64C55.892 64.3467 56.5453 63.8133 57.1853 63.04C57.8253 62.2667 58.3586 61.1733 58.7853 59.76C57.6386 59.04 56.812 58.16 56.3053 57.12C55.7986 56.0533 55.5453 54.88 55.5453 53.6C55.5453 53.2267 55.612 52.7467 55.7453 52.16C55.8786 51.5733 56.1053 50.9733 56.4253 50.36C56.772 49.7467 57.2386 49.24 57.8253 48.84C55.9853 49.2133 54.4786 49.7733 53.3053 50.52C52.132 51.2667 51.212 52.1333 50.5453 53.12C49.9053 54.08 49.452 55.08 49.1853 56.12C48.9453 57.1333 48.8253 58.1067 48.8253 59.04C48.8253 60.1067 48.9986 61.1067 49.3453 62.04C49.692 62.9467 50.1986 63.68 50.8653 64.24C51.532 64.8 52.3453 65.08 53.3053 65.08ZM74.2591 70C72.6324 70 71.4724 69.5733 70.7791 68.72C70.0857 67.8667 69.7391 66.64 69.7391 65.04C69.7391 64.48 69.8191 63.6267 69.9791 62.48C70.1391 61.3067 70.3391 60.0133 70.5791 58.6C70.8457 57.16 71.1257 55.72 71.4191 54.28C71.7124 52.84 71.9924 51.56 72.2591 50.44L70.1791 47.24C71.5657 46.6267 72.8457 46.1067 74.0191 45.68C75.2191 45.2267 76.2857 45 77.2191 45C77.9124 45 78.4191 45.24 78.7391 45.72C79.0591 46.2 79.2191 46.8133 79.2191 47.56C79.2191 48.4133 79.0724 49.3733 78.7791 50.44C78.4857 51.48 78.1924 52.4667 77.8991 53.4L78.2991 53.6C79.2324 50.8533 80.2857 48.7333 81.4591 47.24C82.6591 45.7467 83.9924 45 85.4591 45C86.4191 45 87.1924 45.2133 87.7791 45.64C88.3657 46.04 88.7924 46.5467 89.0591 47.16C89.3524 47.7467 89.4991 48.32 89.4991 48.88C89.4991 49.76 89.2724 50.6133 88.8191 51.44C88.3924 52.24 87.6991 52.9067 86.7391 53.44C85.7791 53.9467 84.5124 54.2 82.9391 54.2C82.3257 54.2 81.7257 54.3333 81.1391 54.6C80.5524 54.8667 80.0191 55.3733 79.5391 56.12C79.0591 56.84 78.6724 57.8667 78.3791 59.2C78.1124 60.5333 77.9791 62.2667 77.9791 64.4C77.9791 66.0533 78.2591 67.2667 78.8191 68.04C77.1657 69.3467 75.6457 70 74.2591 70ZM98.4309 42.4C97.2043 42.4 96.1909 42.1333 95.3909 41.6C94.5909 41.0667 94.1909 40.3467 94.1909 39.44C94.1909 38.56 94.4843 37.84 95.0709 37.28C95.6576 36.6933 96.3643 36.2533 97.1909 35.96C98.0443 35.6667 98.8443 35.52 99.5909 35.52C100.818 35.52 101.831 35.7867 102.631 36.32C103.431 36.8267 103.831 37.5467 103.831 38.48C103.831 39.2533 103.578 39.9467 103.071 40.56C102.564 41.1467 101.898 41.6 101.071 41.92C100.271 42.24 99.3909 42.4 98.4309 42.4ZM96.0309 70C94.3243 70 93.1109 69.5733 92.3909 68.72C91.6709 67.8667 91.3109 66.64 91.3109 65.04C91.3109 64.4533 91.3909 63.64 91.5509 62.6C91.7109 61.5333 91.9243 60.36 92.1909 59.08C92.4576 57.7733 92.7376 56.4533 93.0309 55.12C93.3243 53.7867 93.6043 52.5333 93.8709 51.36L91.6309 48C93.0443 47.1467 94.3909 46.44 95.6709 45.88C96.9509 45.2933 98.2309 45 99.5109 45C100.631 45 101.404 45.24 101.831 45.72C102.284 46.2 102.511 46.9467 102.511 47.96C102.511 48.36 102.404 49.0133 102.191 49.92C102.004 50.8267 101.764 51.8933 101.471 53.12C101.178 54.3467 100.884 55.64 100.591 57C100.298 58.3333 100.044 59.6533 99.8309 60.96C99.6443 62.24 99.5509 63.3867 99.5509 64.4C99.5509 65.2 99.6443 65.92 99.8309 66.56C100.044 67.1733 100.364 67.6667 100.791 68.04C99.2976 69.3467 97.7109 70 96.0309 70ZM117.339 70C115.019 70 113.005 69.56 111.299 68.68C109.619 67.7733 108.312 66.5333 107.379 64.96C106.472 63.3867 106.019 61.56 106.019 59.48C106.019 57.32 106.405 55.36 107.179 53.6C107.952 51.8133 109.045 50.28 110.459 49C111.872 47.72 113.512 46.7333 115.379 46.04C117.272 45.3467 119.312 45 121.499 45C123.872 45 125.699 45.4533 126.979 46.36C128.285 47.24 128.939 48.3467 128.939 49.68C128.939 50.96 128.472 51.9333 127.539 52.6C126.632 53.2667 125.592 53.6 124.419 53.6C123.619 53.6 122.779 53.3333 121.899 52.8C121.019 52.2667 120.312 51.44 119.779 50.32C118.605 50.8 117.605 51.5467 116.779 52.56C115.979 53.5467 115.365 54.6533 114.939 55.88C114.539 57.08 114.339 58.2667 114.339 59.44C114.339 61.0133 114.672 62.3733 115.339 63.52C116.005 64.64 116.992 65.2 118.299 65.2C119.205 65.2 120.032 64.8533 120.779 64.16C121.525 63.44 121.899 62.3067 121.899 60.76C123.712 60.76 125.139 60.96 126.179 61.36C127.219 61.76 127.739 62.48 127.739 63.52C127.739 64.48 127.312 65.4667 126.459 66.48C125.605 67.4667 124.405 68.3067 122.859 69C121.312 69.6667 119.472 70 117.339 70ZM138.647 70C136.993 70 135.7 69.7067 134.767 69.12C133.86 68.56 133.22 67.8 132.847 66.84C132.5 65.8533 132.327 64.7467 132.327 63.52C132.327 62.1067 132.473 60.6267 132.767 59.08C133.06 57.5067 133.353 55.9867 133.647 54.52C133.94 53.0267 134.087 51.72 134.087 50.6C134.087 48.9467 133.807 47.7333 133.247 46.96C134.34 46.3733 135.473 45.9067 136.647 45.56C137.847 45.1867 138.807 45 139.527 45C140.62 45 141.407 45.2267 141.887 45.68C142.393 46.1067 142.647 46.8267 142.647 47.84C142.647 48.4 142.567 49.1733 142.407 50.16C142.247 51.12 142.047 52.1733 141.807 53.32C141.567 54.4667 141.313 55.6267 141.047 56.8C140.807 57.9467 140.607 58.9867 140.447 59.92C140.287 60.8533 140.207 61.5867 140.207 62.12C140.207 63.1067 140.46 63.8533 140.967 64.36C141.5 64.8667 142.14 65.12 142.887 65.12C143.74 65.12 144.633 64.8 145.567 64.16C146.5 63.52 147.273 62.5867 147.887 61.36C147.993 60.7733 148.127 60.04 148.287 59.16C148.473 58.28 148.673 57.3467 148.887 56.36C149.127 55.3467 149.34 54.3867 149.527 53.48C149.74 52.5467 149.927 51.76 150.087 51.12L147.687 47.92C148.833 47.0933 150.06 46.4 151.367 45.84C152.673 45.28 154.007 45 155.367 45C156.567 45 157.42 45.2267 157.927 45.68C158.46 46.1067 158.727 46.8267 158.727 47.84C158.727 48.4 158.62 49.1733 158.407 50.16C158.22 51.1467 157.98 52.2533 157.687 53.48C157.42 54.68 157.14 55.9333 156.847 57.24C156.553 58.5467 156.3 59.8267 156.087 61.08C155.9 62.3067 155.807 63.4133 155.807 64.4C155.807 65.2 155.9 65.92 156.087 66.56C156.3 67.1733 156.62 67.6667 157.047 68.04C155.553 69.3467 153.967 70 152.287 70C150.58 70 149.393 69.6133 148.727 68.84C148.06 68.0667 147.727 67.1467 147.727 66.08L147.327 65.88C146.447 67.1867 145.22 68.2 143.647 68.92C142.073 69.64 140.407 70 138.647 70ZM167.593 70C165.967 70 164.807 69.4933 164.113 68.48C163.42 67.4667 163.073 65.92 163.073 63.84C163.073 63.2533 163.14 62.3867 163.273 61.24C163.433 60.0933 163.633 58.7867 163.873 57.32C164.113 55.8533 164.38 54.3333 164.673 52.76C164.967 51.16 165.247 49.6133 165.513 48.12C165.78 46.6267 166.02 45.2933 166.233 44.12L163.993 40.92C165.407 40.0933 166.753 39.4 168.033 38.84C169.313 38.28 170.593 38 171.873 38C172.993 38 173.767 38.2267 174.193 38.68C174.647 39.1067 174.873 39.8267 174.873 40.84C174.873 41.7733 174.753 42.9467 174.513 44.36C174.273 45.7467 173.98 47.2667 173.633 48.92C173.287 50.5467 172.927 52.2267 172.553 53.96C172.207 55.6933 171.913 57.36 171.673 58.96C171.433 60.56 171.313 62.0133 171.313 63.32C171.313 64.36 171.407 65.2933 171.593 66.12C171.807 66.92 172.127 67.56 172.553 68.04C170.687 69.3467 169.033 70 167.593 70ZM184.744 70C183.037 70 181.824 69.4933 181.104 68.48C180.384 67.4667 180.024 65.92 180.024 63.84C180.024 63.2533 180.091 62.4267 180.224 61.36C180.357 60.2667 180.531 59.0533 180.744 57.72C180.984 56.3867 181.211 55.0667 181.424 53.76C180.864 53.8667 180.317 53.9867 179.784 54.12C179.277 54.2533 178.797 54.4 178.344 54.56C178.237 54.16 178.157 53.76 178.104 53.36C178.077 52.96 178.064 52.6667 178.064 52.48C178.064 51.0933 178.464 50.0933 179.264 49.48C180.091 48.84 181.077 48.52 182.224 48.52C182.224 47.9067 182.144 47.2267 181.984 46.48C181.824 45.7333 181.544 44.9067 181.144 44C182.264 43.1733 183.384 42.48 184.504 41.92C185.624 41.36 186.864 41.08 188.224 41.08C189.397 41.08 190.211 41.3067 190.664 41.76C191.117 42.1867 191.344 42.9067 191.344 43.92C191.344 44.4267 191.291 45.0267 191.184 45.72C191.077 46.4133 190.944 47.1733 190.784 48C191.371 47.92 191.931 47.8267 192.464 47.72C192.997 47.5867 193.517 47.4533 194.024 47.32C194.131 47.6133 194.197 47.92 194.224 48.24C194.277 48.5333 194.304 48.8267 194.304 49.12C194.304 50.1867 193.971 51.12 193.304 51.92C192.664 52.6933 191.664 53.08 190.304 53.08H189.704C189.331 54.7867 188.997 56.5333 188.704 58.32C188.411 60.1067 188.264 61.7733 188.264 63.32C188.264 64.36 188.357 65.2933 188.544 66.12C188.757 66.92 189.077 67.56 189.504 68.04C188.011 69.3467 186.424 70 184.744 70ZM203.608 70C201.954 70 200.661 69.7067 199.728 69.12C198.821 68.56 198.181 67.8 197.808 66.84C197.461 65.8533 197.288 64.7467 197.288 63.52C197.288 62.1067 197.434 60.6267 197.728 59.08C198.021 57.5067 198.314 55.9867 198.608 54.52C198.901 53.0267 199.048 51.72 199.048 50.6C199.048 48.9467 198.768 47.7333 198.208 46.96C199.301 46.3733 200.434 45.9067 201.608 45.56C202.808 45.1867 203.768 45 204.488 45C205.581 45 206.368 45.2267 206.848 45.68C207.354 46.1067 207.608 46.8267 207.608 47.84C207.608 48.4 207.528 49.1733 207.368 50.16C207.208 51.12 207.008 52.1733 206.768 53.32C206.528 54.4667 206.274 55.6267 206.008 56.8C205.768 57.9467 205.568 58.9867 205.408 59.92C205.248 60.8533 205.168 61.5867 205.168 62.12C205.168 63.1067 205.421 63.8533 205.928 64.36C206.461 64.8667 207.101 65.12 207.848 65.12C208.701 65.12 209.594 64.8 210.528 64.16C211.461 63.52 212.234 62.5867 212.848 61.36C212.954 60.7733 213.088 60.04 213.248 59.16C213.434 58.28 213.634 57.3467 213.848 56.36C214.088 55.3467 214.301 54.3867 214.488 53.48C214.701 52.5467 214.888 51.76 215.048 51.12L212.648 47.92C213.794 47.0933 215.021 46.4 216.328 45.84C217.634 45.28 218.968 45 220.328 45C221.528 45 222.381 45.2267 222.888 45.68C223.421 46.1067 223.688 46.8267 223.688 47.84C223.688 48.4 223.581 49.1733 223.368 50.16C223.181 51.1467 222.941 52.2533 222.648 53.48C222.381 54.68 222.101 55.9333 221.808 57.24C221.514 58.5467 221.261 59.8267 221.048 61.08C220.861 62.3067 220.768 63.4133 220.768 64.4C220.768 65.2 220.861 65.92 221.048 66.56C221.261 67.1733 221.581 67.6667 222.008 68.04C220.514 69.3467 218.928 70 217.248 70C215.541 70 214.354 69.6133 213.688 68.84C213.021 68.0667 212.688 67.1467 212.688 66.08L212.288 65.88C211.408 67.1867 210.181 68.2 208.608 68.92C207.034 69.64 205.368 70 203.608 70ZM231.954 70C230.328 70 229.168 69.5733 228.474 68.72C227.781 67.8667 227.434 66.64 227.434 65.04C227.434 64.48 227.514 63.6267 227.674 62.48C227.834 61.3067 228.034 60.0133 228.274 58.6C228.541 57.16 228.821 55.72 229.114 54.28C229.408 52.84 229.688 51.56 229.954 50.44L227.874 47.24C229.261 46.6267 230.541 46.1067 231.714 45.68C232.914 45.2267 233.981 45 234.914 45C235.608 45 236.114 45.24 236.434 45.72C236.754 46.2 236.914 46.8133 236.914 47.56C236.914 48.4133 236.768 49.3733 236.474 50.44C236.181 51.48 235.888 52.4667 235.594 53.4L235.994 53.6C236.928 50.8533 237.981 48.7333 239.154 47.24C240.354 45.7467 241.688 45 243.154 45C244.114 45 244.888 45.2133 245.474 45.64C246.061 46.04 246.488 46.5467 246.754 47.16C247.048 47.7467 247.194 48.32 247.194 48.88C247.194 49.76 246.968 50.6133 246.514 51.44C246.088 52.24 245.394 52.9067 244.434 53.44C243.474 53.9467 242.208 54.2 240.634 54.2C240.021 54.2 239.421 54.3333 238.834 54.6C238.248 54.8667 237.714 55.3733 237.234 56.12C236.754 56.84 236.368 57.8667 236.074 59.2C235.808 60.5333 235.674 62.2667 235.674 64.4C235.674 66.0533 235.954 67.2667 236.514 68.04C234.861 69.3467 233.341 70 231.954 70ZM254.275 70C252.782 70 251.462 69.6133 250.315 68.84C249.195 68.0667 248.329 66.9733 247.715 65.56C247.102 64.1467 246.795 62.4933 246.795 60.6C246.795 58.3867 247.182 56.3333 247.955 54.44C248.755 52.5467 249.849 50.8933 251.235 49.48C252.649 48.0667 254.302 46.9733 256.195 46.2C258.089 45.4 260.142 45 262.355 45C262.995 45 263.542 45.0267 263.995 45.08C264.475 45.1067 264.982 45.1867 265.515 45.32C265.675 46.0667 265.769 46.72 265.795 47.28C266.409 46.88 267.089 46.5733 267.835 46.36C268.582 46.12 269.275 46 269.915 46C271.862 46 272.835 47.0533 272.835 49.16C272.835 49.8533 272.702 50.8 272.435 52C272.195 53.1733 271.902 54.48 271.555 55.92C271.235 57.3333 270.942 58.7867 270.675 60.28C270.435 61.7467 270.315 63.12 270.315 64.4C270.315 66.1333 270.729 67.3467 271.555 68.04C270.062 69.3467 268.475 70 266.795 70C265.249 70 264.102 69.52 263.355 68.56C262.635 67.6 262.275 66.1067 262.275 64.08L261.875 63.88C261.155 65.8 260.115 67.3067 258.755 68.4C257.422 69.4667 255.929 70 254.275 70ZM257.435 62.72C258.475 62.72 259.489 62.3467 260.475 61.6C261.462 60.8533 262.289 59.8267 262.955 58.52C263.062 57.48 263.169 56.5067 263.275 55.6C263.409 54.6667 263.569 53.68 263.755 52.64C263.969 51.6 264.222 50.3733 264.515 48.96C263.155 48.96 261.862 49.2267 260.635 49.76C259.435 50.2667 258.355 50.9733 257.395 51.88C256.435 52.7867 255.675 53.8267 255.115 55C254.582 56.1467 254.315 57.36 254.315 58.64C254.315 59.9467 254.582 60.96 255.115 61.68C255.675 62.3733 256.449 62.72 257.435 62.72Z" fill="#5FB0B5"/>
<path d="M92.52 74.92L92.72 73.8H103.56C105.613 73.8 107.227 74.1067 108.4 74.72C109.6 75.3067 110.427 76.0933 110.88 77.08C111.333 78.0667 111.453 79.1467 111.24 80.32L111.04 81.48C110.8 82.8667 110.187 84.0533 109.2 85.04C108.213 86 106.84 86.6667 105.08 87.04C107 87.4133 108.387 88.1733 109.24 89.32C110.12 90.4667 110.413 91.8667 110.12 93.52L109.92 94.68C109.733 95.8267 109.28 96.88 108.56 97.84C107.84 98.8 106.8 99.5733 105.44 100.16C104.107 100.72 102.36 101 100.2 101H87.92L88.12 99.88L90.36 99.6C90.8133 99.5467 91.0933 99.44 91.2 99.28C91.3067 99.0933 91.44 98.5467 91.6 97.64L95.2 77.16C95.36 76.2533 95.4133 75.72 95.36 75.56C95.3067 75.3733 95.08 75.2533 94.68 75.2L92.52 74.92ZM103.52 75.2H100.36L98.36 86.4H101.52C102.667 86.4 103.6 86.0267 104.32 85.28C105.067 84.5067 105.587 83.3067 105.88 81.68L106.12 80.4C106.467 78.5867 106.4 77.2667 105.92 76.44C105.467 75.6133 104.667 75.2 103.52 75.2ZM102.28 87.8H98.12L96.04 99.6H100.2C101.4 99.6 102.387 99.2133 103.16 98.44C103.933 97.64 104.48 96.36 104.8 94.6L105.04 93.28C105.387 91.4133 105.307 90.04 104.8 89.16C104.32 88.2533 103.48 87.8 102.28 87.8ZM130.248 97.08C129.315 98.7067 128.142 99.84 126.728 100.48C125.315 101.093 123.875 101.4 122.408 101.4C120.462 101.4 118.835 100.947 117.528 100.04C116.248 99.1333 115.355 97.88 114.848 96.28C114.368 94.6533 114.315 92.76 114.688 90.6L114.848 89.72C115.195 87.8533 115.848 86.2267 116.808 84.84C117.795 83.4267 119.035 82.32 120.528 81.52C122.022 80.72 123.688 80.32 125.528 80.32C126.915 80.32 128.075 80.5467 129.008 81C129.942 81.4533 130.648 82.0533 131.128 82.8C131.608 83.52 131.848 84.2933 131.848 85.12C131.848 86.5067 131.382 87.6933 130.448 88.68C129.515 89.6667 128.222 90.4533 126.568 91.04C124.942 91.6 123.048 91.96 120.888 92.12L119.368 92.24C118.595 97.4133 119.728 100 122.768 100C123.355 100 123.995 99.88 124.688 99.64C125.382 99.3733 126.035 98.9333 126.648 98.32C127.288 97.7067 127.782 96.8933 128.128 95.88L130.248 97.08ZM119.848 89.2L119.568 90.84L120.848 90.76C122.768 90.6267 124.235 90.2667 125.248 89.68C126.288 89.0667 126.995 88.3333 127.368 87.48C127.768 86.6267 127.968 85.7867 127.968 84.96C127.968 83.9467 127.728 83.16 127.248 82.6C126.795 82.0133 126.142 81.72 125.288 81.72C124.088 81.72 122.995 82.32 122.008 83.52C121.022 84.6933 120.302 86.5867 119.848 89.2ZM136.051 72.52L136.251 71.4H143.931L139.811 94.96C139.465 96.8533 139.305 98.1067 139.331 98.72C139.358 99.3067 139.571 99.6 139.971 99.6C140.345 99.6 140.745 99.3867 141.171 98.96C141.598 98.5333 141.985 97.8133 142.331 96.8L143.891 97.68C143.305 98.9067 142.598 99.8 141.771 100.36C140.945 100.92 139.998 101.2 138.931 101.2C137.465 101.2 136.385 100.693 135.691 99.68C134.998 98.64 134.811 97.1867 135.131 95.32L138.731 74.76C138.891 73.8533 138.945 73.32 138.891 73.16C138.838 72.9733 138.611 72.8533 138.211 72.8L136.051 72.52ZM162.403 101.2C161.31 101.2 160.417 100.907 159.723 100.32C159.057 99.7067 158.657 98.84 158.523 97.72C157.67 99.1333 156.737 100.107 155.723 100.64C154.71 101.147 153.67 101.4 152.603 101.4C150.977 101.4 149.657 100.907 148.643 99.92C147.657 98.9333 146.99 97.6 146.643 95.92C146.323 94.24 146.35 92.3867 146.723 90.36L146.883 89.48C147.257 87.48 147.91 85.8 148.843 84.44C149.777 83.08 150.883 82.0533 152.163 81.36C153.47 80.6667 154.843 80.32 156.283 80.32C158.337 80.32 159.897 81.0133 160.963 82.4C161.577 82.24 162.203 82.0267 162.843 81.76C163.51 81.4933 164.137 81.1467 164.723 80.72H165.803L163.283 95C162.937 96.8667 162.777 98.1067 162.803 98.72C162.83 99.3067 163.043 99.6 163.443 99.6C163.817 99.6 164.217 99.3867 164.643 98.96C165.07 98.5333 165.457 97.8133 165.803 96.8L167.363 97.68C166.777 98.9067 166.07 99.8 165.243 100.36C164.417 100.92 163.47 101.2 162.403 101.2ZM151.523 91.08C151.017 94.0133 150.977 96.2 151.403 97.64C151.857 99.0533 152.59 99.76 153.603 99.76C153.977 99.76 154.43 99.64 154.963 99.4C155.523 99.1333 156.123 98.6267 156.763 97.88C157.43 97.1067 158.097 95.9733 158.763 94.48L160.523 84.4C160.097 83.4667 159.537 82.8267 158.843 82.48C158.177 82.1067 157.497 81.92 156.803 81.92C155.417 81.92 154.337 82.5467 153.563 83.8C152.817 85.0533 152.257 86.7867 151.883 89L151.523 91.08ZM188.825 99.88L188.625 101H176.865L177.065 99.88L179.305 99.6C179.732 99.5467 179.999 99.44 180.105 99.28C180.239 99.0933 180.385 98.5467 180.545 97.64L184.145 77.16C184.305 76.2533 184.359 75.72 184.305 75.56C184.252 75.3733 184.025 75.2533 183.625 75.2L181.465 74.92L181.665 73.8H200.625L199.425 80.68H198.305L197.785 76.24C197.759 75.92 197.705 75.6933 197.625 75.56C197.572 75.4 197.412 75.3067 197.145 75.28C196.905 75.2267 196.465 75.2 195.825 75.2H189.265L187.225 86.8H191.385C192.025 86.8 192.479 86.7867 192.745 86.76C193.012 86.7067 193.199 86.6133 193.305 86.48C193.439 86.32 193.572 86.08 193.705 85.76L195.145 82.52H196.265L194.545 92.48H193.425L193.105 89.24C193.079 88.76 192.972 88.4667 192.785 88.36C192.599 88.2533 192.039 88.2 191.105 88.2H186.985L185.345 97.64C185.185 98.5467 185.132 99.0933 185.185 99.28C185.239 99.44 185.465 99.5467 185.865 99.6L188.825 99.88ZM202.614 72.52L202.814 71.4H210.494L206.374 94.96C206.027 96.8533 205.867 98.1067 205.894 98.72C205.92 99.3067 206.134 99.6 206.534 99.6C206.907 99.6 207.307 99.3867 207.734 98.96C208.16 98.5333 208.547 97.8133 208.894 96.8L210.454 97.68C209.867 98.9067 209.16 99.8 208.334 100.36C207.507 100.92 206.56 101.2 205.494 101.2C204.027 101.2 202.947 100.693 202.254 99.68C201.56 98.64 201.374 97.1867 201.694 95.32L205.294 74.76C205.454 73.8533 205.507 73.32 205.454 73.16C205.4 72.9733 205.174 72.8533 204.774 72.8L202.614 72.52ZM231.286 91.24L231.126 92.08C230.566 95.0133 229.393 97.3067 227.606 98.96C225.846 100.587 223.539 101.4 220.686 101.4C218.739 101.4 217.139 100.92 215.886 99.96C214.633 99 213.766 97.6933 213.286 96.04C212.806 94.3867 212.753 92.5333 213.126 90.48L213.286 89.64C213.846 86.7067 215.006 84.4267 216.766 82.8C218.553 81.1467 220.859 80.32 223.686 80.32C225.659 80.32 227.273 80.8133 228.526 81.8C229.806 82.76 230.686 84.0667 231.166 85.72C231.646 87.3467 231.686 89.1867 231.286 91.24ZM226.566 90.04C227.126 87.0267 227.113 84.8933 226.526 83.64C225.966 82.36 225.046 81.72 223.766 81.72C222.379 81.72 221.233 82.32 220.326 83.52C219.419 84.72 218.726 86.6267 218.246 89.24L217.806 91.68C217.273 94.6933 217.286 96.84 217.846 98.12C218.433 99.3733 219.353 100 220.606 100C222.019 100 223.179 99.4 224.086 98.2C224.993 97 225.673 95.0933 226.126 92.48L226.566 90.04ZM247.032 83.12C246.445 83.12 245.752 83.4667 244.952 84.16C244.178 84.8267 243.325 86.1067 242.392 88L240.112 101H235.512L238.472 84.04C238.632 83.16 238.685 82.64 238.632 82.48C238.578 82.2933 238.352 82.1733 237.952 82.12L235.792 81.84L235.992 80.72H243.432L242.712 84.72C244.738 81.7867 246.898 80.32 249.192 80.32C250.072 80.32 250.858 80.5867 251.552 81.12C252.245 81.6267 252.725 82.5867 252.992 84L249.072 85.92C248.885 84.8267 248.605 84.0933 248.232 83.72C247.858 83.32 247.458 83.12 247.032 83.12Z" fill="#5FB0B5"/>
</svg>
