<svg width="48" height="48" viewBox="0 0 48 48" fill="none" xmlns="http://www.w3.org/2000/svg">
<path fill-rule="evenodd" clip-rule="evenodd" d="M24 0C22.6745 0 21.6 0.976844 21.6 2.18182V32.7273C21.6 35.1373 19.451 37.0909 16.8 37.0909C14.149 37.0909 12 35.1373 12 32.7273C12 30.3172 14.149 28.3636 16.8 28.3636C18.1255 28.3636 19.2 27.3868 19.2 26.1818V19.6364C19.2 18.4314 18.1255 17.4545 16.8 17.4545C7.52162 17.4545 0 24.2924 0 32.7273C0 41.1622 7.52162 48 16.8 48C26.0784 48 33.6 41.1622 33.6 32.7273V21.0805C37.1304 22.9368 41.2301 24 45.6 24C46.9255 24 48 23.0232 48 21.8182V15.2727C48 14.0678 46.9255 13.0909 45.6 13.0909C38.9726 13.0909 33.6 8.20673 33.6 2.18182C33.6 0.976844 32.5255 0 31.2 0H24Z" fill="black"/>
</svg>
